# xmcd CD database file
#
# Track frame offsets:
#	150
#	24631
#	49682
#	69072
#	105844
#	126765
#	159609
#
# Disc length: 2507 seconds
#
# Revision: 0
# Processed by: cddbd v1.5.2PL0 Copyright (c) Steve Scherf et al.
# Submitted via: CDex 1.51
#
DISCID=4c09c907
DTITLE=Laurent Marode sextet - I mean
DYEAR=2005
DGENRE=Jazz
TTITLE0=Snoopy mobile
TTITLE1=Hypocondrie
TTITLE2=I mean
TTITLE3=La petite ourse
TTITLE4=Petit conte pour Gerry
TTITLE5=Ogre's walk
TTITLE6=Time for blues
EXTD=YEAR: 2005
EXTT0=
EXTT1=
EXTT2=
EXTT3=
EXTT4=
EXTT5=
EXTT6=
PLAYORDER=
